<?xml version="1.0" encoding="utf-8"?>
<!-- Generator: Adobe Illustrator 21.0.0, SVG Export Plug-In . SVG Version: 6.00 Build 0)  -->
<svg version="1.1" id="Layer_1" xmlns="http://www.w3.org/2000/svg" xmlns:xlink="http://www.w3.org/1999/xlink" x="0px" y="0px"
	 viewBox="0 0 561 136" style="enable-background:new 0 0 561 136;" xml:space="preserve">
<style type="text/css">
	.st0{fill:#070707;}
	.st1{font-family:'SavoyeLetPlain';}
	.st2{font-size:120px;}
</style>
<g>
	<path class="st0" d="M30.1,92.2c0-0.7-0.6-1.2-1.2-1.2H4.7c-0.7,0-1.2,0.6-1.2,1.2s0.6,1.2,1.2,1.2h24.1
		C29.5,93.5,30.1,92.9,30.1,92.2z"/>
	<path class="st0" d="M34.4,98.1c0-0.7-0.6-1.2-1.2-1.2H23c-0.7,0-1.2,0.6-1.2,1.2s0.6,1.2,1.2,1.2h10.1
		C33.8,99.4,34.4,98.8,34.4,98.1z"/>
	<path class="st0" d="M76.3,96.9h-37c-0.7,0-1.2,0.6-1.2,1.2s0.6,1.2,1.2,1.2h37c0.7,0,1.2-0.6,1.2-1.2S77,96.9,76.3,96.9z"/>
	<path class="st0" d="M55.7,103.1H32.9c-0.7,0-1.2,0.6-1.2,1.2s0.6,1.2,1.2,1.2h22.8c0.7,0,1.2-0.6,1.2-1.2S56.4,103.1,55.7,103.1z"
		/>
	<path class="st0" d="M66.4,103.1h-4.6c-0.7,0-1.2,0.6-1.2,1.2s0.6,1.2,1.2,1.2h4.6c0.7,0,1.2-0.6,1.2-1.2S67.1,103.1,66.4,103.1z"
		/>
	<path class="st0" d="M95.3,91H78.4c3.3-3.9,5.8-8.3,7.4-13.1c0.2-0.7-0.1-1.4-0.8-1.6s-1.4,0.1-1.6,0.8c-1.6,5.2-4.6,10-8.4,13.9
		h-5.9c-0.7,0-1.2,0.6-1.2,1.2s0.6,1.2,1.2,1.2h6.4h19.8c0.7,0,1.2-0.6,1.2-1.2S96,91,95.3,91z"/>
	<path class="st0" d="M12.1,61v0.1v0.1c0,0.1,0,0.1,0.1,0.1c0,0.1,0,0.1,0.1,0.1c0,0.1,0.1,0.1,0.1,0.1s0.1,0.1,0.1,0.1
		s0.1,0.1,0.1,0.1l0.1,0.1c0,0,0.1,0.1,0.1,0.1l0.1,0.1c0.1,0,0.1,0.1,0.1,0.1s0.1,0.1,0.1,0.1s0.1,0,0.1,0.1c0.1,0,0.1,0,0.1,0.1
		h0.2h12.8c0.7,0,1.2-0.6,1.2-1.2s-0.6-1.2-1.2-1.2H14.9c1.3-7,4.7-13.3,9.8-18.4C31.3,34.7,40.2,31,49.7,31
		c9.4,0,18.4,3.7,25.1,10.4c1.4,1.4,2.7,2.9,3.8,4.5c0.4,0.6,1.2,0.7,1.8,0.3s0.7-1.2,0.3-1.8c-1.2-1.8-2.6-3.4-4.1-4.8
		c-7.2-7.2-16.7-11.1-26.8-11.1c-10.2-0.1-19.7,3.9-26.9,11c-5.8,5.8-9.5,13.1-10.7,21.2v0.1L12.1,61L12.1,61L12.1,61z"/>
	<path class="st0" d="M50.6,80.4c0,0.7,0.6,1.2,1.2,1.2h12.9c0.4,0,0.9-0.2,1.1-0.6c0.2-0.4,0.2-0.9,0-1.2L46.9,47.3v-3.7h4.9
		c0.7,0,1.2-0.6,1.2-1.2s-0.6-1.2-1.2-1.2h-4.9v-2.4c0-0.7-0.6-1.2-1.2-1.2s-1.2,0.6-1.2,1.2v13.5L31.8,76.6
		c-0.2,0.4-0.2,0.9,0.1,1.2s0.6,0.6,1.1,0.6h6.6c0.7,0,1.2-0.6,1.2-1.2S40.2,76,39.5,76h-4.6l9.5-18.2v19.5v7.7H31.6
		c-0.4,0-0.9,0.2-1.1,0.7c-0.2,0.4-0.2,0.9,0.1,1.2l4,6.1c0.2,0.4,0.6,0.6,1.1,0.6h21.1c0.7,0,1.2-0.6,1.2-1.2S57.4,91,56.7,91H36.2
		l-2.3-3.6h11.8h17.4l-1.4,4.4c-0.2,0.7,0.2,1.4,0.8,1.6c0.1,0.1,0.2,0.1,0.4,0.1c0.6,0,1-0.4,1.2-0.9l1.9-6.1
		c0.1-0.4,0.1-0.8-0.2-1.1s-0.6-0.5-1-0.5H46.9V52.3l15.6,26.9H51.9C51.2,79.2,50.6,79.8,50.6,80.4L50.6,80.4z"/>
	<path class="st0" d="M82.9,49.8H64.8c-0.7,0-1.2,0.6-1.2,1.2s0.6,1.2,1.2,1.2h17.4c1.9,4.4,2.9,9.2,2.9,14.1c0,1.2-0.1,2.4-0.2,3.7
		h-6.3c-0.7,0-1.2,0.6-1.2,1.2s0.6,1.2,1.2,1.2h7.4h0.2h0.1c0.1,0,0.1,0,0.2-0.1c0,0,0.1,0,0.1-0.1c0.1,0,0.1-0.1,0.1-0.1
		s0.1,0,0.1-0.1l0.1-0.1l0.1-0.1l0.1-0.1c0,0,0-0.1,0.1-0.1c0-0.1,0.1-0.1,0.1-0.1v-0.1c0-0.1,0.1-0.1,0.1-0.2v-0.1v-0.1
		c0.2-1.7,0.3-3.4,0.3-5.1c0-5.6-1.2-10.9-3.5-15.9c0-0.1-0.1-0.1-0.1-0.1v-0.1c-0.1-0.1-0.1-0.1-0.1-0.1l-0.1-0.1L83.8,50l-0.1-0.1
		c-0.1-0.1-0.1-0.1-0.1-0.1h-0.1c-0.1,0-0.1-0.1-0.2-0.1h-0.1h-0.2C83,49.8,83,49.8,82.9,49.8z"/>
	<path class="st0" d="M18.8,87.4c0.2,0,0.4-0.1,0.7-0.2c0.6-0.4,0.8-1.1,0.4-1.8c-3.6-5.6-5.5-12-5.6-18.6c0-0.7-0.6-1.2-1.2-1.2
		s-1.2,0.6-1.2,1.2c0.1,7.1,2.2,14,6.1,19.9C18,87.2,18.4,87.4,18.8,87.4L18.8,87.4z"/>
</g>
<text transform="matrix(1 0 0 1 114.2263 105.5616)" class="st1 st2">Sunce Sailing</text>
</svg>
